<?xml version="1.0" encoding="UTF-8"?>
<!DOCTYPE svg PUBLIC "-//W3C//DTD SVG 1.1//EN" "http://www.w3.org/Graphics/SVG/1.1/DTD/svg11.dtd">
<svg xmlns="http://www.w3.org/2000/svg" version="1.1" width="512px" height="511px" style="shape-rendering:geometricPrecision; text-rendering:geometricPrecision; image-rendering:optimizeQuality; fill-rule:evenodd; clip-rule:evenodd" xmlns:xlink="http://www.w3.org/1999/xlink">
<g><path style="opacity:0.986" fill="#000000" d="M 241.5,34.5 C 332.963,32.7988 402.13,70.7988 449,148.5C 477.178,202.437 483.178,258.771 467,317.5C 441.217,396.282 388.384,446.782 308.5,469C 236.714,484.883 172.048,470.217 114.5,425C 52.4907,369.999 26.9907,301.166 38,218.5C 53.1288,141.707 95.9621,86.5404 166.5,53C 190.653,42.878 215.653,36.7113 241.5,34.5 Z"/></g>
<g><path style="opacity:1" fill="#fe1b1b" d="M 297.5,75.5 C 341.303,102.034 370.47,140.034 385,189.5C 386.848,197.891 388.848,206.224 391,214.5C 391.966,222.827 392.799,231.16 393.5,239.5C 371.167,239.5 348.833,239.5 326.5,239.5C 313.17,198.38 284.837,179.88 241.5,184C 211.761,191.573 192.761,210.073 184.5,239.5C 147.167,239.5 109.833,239.5 72.5,239.5C 72.5,238.167 72.5,236.833 72.5,235.5C 82.2866,164.733 119.62,114.566 184.5,85C 221.219,70.0101 258.885,66.8435 297.5,75.5 Z"/></g>
<g><path style="opacity:1" fill="#db1717" d="M 297.5,75.5 C 346.826,86.7303 385.326,113.397 413,155.5C 429.587,181.427 439.087,209.76 441.5,240.5C 402.996,240.832 364.663,240.499 326.5,239.5C 348.833,239.5 371.167,239.5 393.5,239.5C 392.799,231.16 391.966,222.827 391,214.5C 388.848,206.224 386.848,197.891 385,189.5C 370.47,140.034 341.303,102.034 297.5,75.5 Z"/></g>
<g><path style="opacity:1" fill="#fdfdfd" d="M 248.5,212.5 C 273.673,211.195 289.84,222.528 297,246.5C 299.968,271.757 289.468,288.257 265.5,296C 248.76,299.531 234.593,295.031 223,282.5C 214.671,271.533 211.671,259.199 214,245.5C 219.196,227.802 230.696,216.802 248.5,212.5 Z"/></g>
<g><path style="opacity:0.753" fill="#610b0b" d="M 72.5,235.5 C 72.5,236.833 72.5,238.167 72.5,239.5C 109.833,239.5 147.167,239.5 184.5,239.5C 147.004,240.498 109.337,240.832 71.5,240.5C 71.2155,238.585 71.5489,236.919 72.5,235.5 Z"/></g>
<g><path style="opacity:0.802" fill="#818181" d="M 326.5,270.5 C 363.996,269.502 401.663,269.168 439.5,269.5C 439.737,270.791 439.404,271.791 438.5,272.5C 423.871,270.516 408.871,269.85 393.5,270.5C 371.167,270.5 348.833,270.5 326.5,270.5 Z"/></g>
<g><path style="opacity:1" fill="#fefefe" d="M 326.5,270.5 C 348.833,270.5 371.167,270.5 393.5,270.5C 389.711,327.77 367.044,375.937 325.5,415C 317.209,421.806 308.542,427.973 299.5,433.5C 225.308,449.49 162.808,429.49 112,373.5C 87.2053,343.307 73.0386,308.64 69.5,269.5C 107.835,269.333 146.168,269.5 184.5,270C 194.542,305.611 218.042,324.778 255,327.5C 292.193,325.015 316.026,306.015 326.5,270.5 Z"/></g>
<g><path style="opacity:1" fill="#dedede" d="M 393.5,270.5 C 408.871,269.85 423.871,270.516 438.5,272.5C 431.405,331.884 403.072,378.051 353.5,411C 336.78,421.525 318.78,429.025 299.5,433.5C 308.542,427.973 317.209,421.806 325.5,415C 367.044,375.937 389.711,327.77 393.5,270.5 Z"/></g>
</svg>
